<svg xmlns="http://www.w3.org/2000/svg" xmlns:xlink="http://www.w3.org/1999/xlink" width="2000" zoomAndPan="magnify" viewBox="0 0 1500 1049.999947" height="1400" preserveAspectRatio="xMidYMid meet" version="1.0"><defs><clipPath id="805bfe2123"><path d="M 245.15625 20.15625 L 1254.65625 20.15625 L 1254.65625 1029.65625 L 245.15625 1029.65625 Z M 245.15625 20.15625 " clip-rule="nonzero"/></clipPath></defs><path fill="#c65d48" d="M 999.890625 843.253906 L 749.996094 843.253906 C 745.15625 843.253906 741.371094 839.257812 741.371094 834.628906 C 741.371094 830 745.367188 826.003906 749.996094 826.003906 L 999.890625 826.003906 C 1004.726562 826.003906 1008.515625 830 1008.515625 834.628906 C 1008.515625 839.257812 1004.519531 843.253906 999.890625 843.253906 Z M 999.890625 843.253906 " fill-opacity="1" fill-rule="nonzero"/><path fill="#c65d48" d="M 770.398438 843.253906 C 765.5625 843.253906 761.773438 839.257812 761.773438 834.628906 L 761.773438 787.089844 C 761.773438 750.699219 782.808594 716.832031 815.625 700.847656 L 922.269531 648.46875 C 935.734375 641.738281 951.71875 646.996094 958.871094 660.25 C 965.601562 672.238281 962.027344 687.59375 951.089844 695.800781 L 903.550781 730.925781 C 899.554688 733.871094 894.296875 733.03125 891.351562 729.246094 C 888.40625 725.246094 889.246094 719.988281 893.03125 717.042969 L 940.570312 681.496094 C 944.777344 678.550781 945.832031 672.660156 943.515625 668.03125 C 940.78125 663.195312 934.683594 661.089844 929.632812 663.617188 L 822.988281 715.992188 C 796.0625 729.035156 778.8125 757.011719 778.8125 786.667969 L 778.8125 834.207031 C 779.023438 839.257812 775.027344 843.253906 770.398438 843.253906 Z M 770.398438 843.253906 " fill-opacity="1" fill-rule="nonzero"/><path fill="#c65d48" d="M 892.191406 843.253906 C 887.984375 843.253906 884.199219 840.308594 883.777344 835.890625 L 879.148438 804.128906 C 878.730469 800.761719 880.203125 797.398438 883.144531 795.714844 L 925.003906 769.421875 C 936.15625 762.269531 946.039062 753.222656 954.035156 742.496094 L 1025.972656 644.894531 C 1031.441406 637.320312 1034.386719 628.488281 1034.386719 619.019531 L 1034.386719 562.015625 C 1034.386719 559.070312 1033.125 556.335938 1030.8125 554.445312 C 1028.496094 552.550781 1025.550781 551.921875 1022.609375 552.339844 L 1022.398438 552.339844 C 1019.03125 552.972656 1016.507812 555.285156 1015.246094 558.441406 C 1009.144531 574.636719 1001.785156 590.625 993.578125 605.769531 C 982.222656 626.59375 968.757812 646.15625 953.402344 664.246094 C 950.457031 667.824219 944.988281 668.453125 941.203125 665.296875 C 937.625 662.351562 936.996094 656.882812 940.152344 653.097656 C 954.664062 635.847656 967.496094 617.128906 978.222656 597.355469 C 986.21875 582.839844 993.160156 567.695312 998.839844 552.339844 C 1002.203125 543.507812 1009.566406 537.195312 1018.609375 535.300781 L 1018.820312 535.300781 C 1026.816406 533.621094 1035.019531 535.511719 1041.539062 540.773438 C 1048.058594 546.03125 1051.636719 553.601562 1051.636719 561.804688 L 1051.636719 618.8125 C 1051.636719 631.851562 1047.640625 644.261719 1039.855469 654.78125 L 967.917969 752.382812 C 958.660156 765.003906 947.511719 775.3125 934.261719 783.726562 L 897.238281 807.074219 L 901.027344 833.15625 C 901.65625 837.996094 898.5 842.203125 893.664062 843.042969 C 893.03125 843.042969 892.613281 843.253906 892.191406 843.253906 Z M 892.191406 843.253906 " fill-opacity="1" fill-rule="nonzero"/><path fill="#c65d48" d="M 905.863281 674.554688 C 903.972656 674.554688 902.078125 673.921875 900.394531 672.660156 C 896.609375 669.714844 895.976562 664.246094 899.132812 660.460938 L 942.886719 605.980469 C 945.832031 602.402344 947.933594 597.988281 948.984375 593.359375 L 962.660156 537.195312 C 966.867188 520.367188 981.800781 508.589844 999.257812 508.589844 L 1045.957031 508.589844 C 1050.792969 508.589844 1054.582031 512.585938 1054.582031 517.210938 C 1054.582031 521.839844 1050.585938 525.835938 1045.957031 525.835938 L 999.257812 525.835938 C 989.792969 525.835938 981.589844 532.148438 979.484375 541.402344 L 965.8125 597.566406 C 964.128906 604.71875 960.765625 611.238281 956.347656 616.917969 L 912.59375 671.398438 C 910.914062 673.5 908.386719 674.554688 905.863281 674.554688 Z M 905.863281 674.554688 " fill-opacity="1" fill-rule="nonzero"/><path fill="#c65d48" d="M 1057.734375 485.238281 L 902.5 485.238281 C 899.765625 485.238281 897.03125 483.976562 895.347656 481.664062 C 893.664062 479.351562 893.242188 476.40625 894.296875 473.878906 C 899.554688 458.523438 916.171875 420.453125 958.453125 398.367188 C 984.535156 384.902344 1009.988281 383.011719 1026.605469 383.851562 C 1032.074219 384.0625 1036.910156 387.21875 1039.644531 391.84375 C 1042.378906 396.472656 1042.589844 402.363281 1040.066406 407.199219 C 1033.964844 419.609375 1021.765625 436.648438 999.890625 446.535156 C 969.808594 459.996094 941.414062 450.953125 928.792969 445.273438 C 922.691406 453.265625 918.273438 461.050781 915.121094 467.78125 L 1057.527344 467.78125 C 1062.363281 467.78125 1066.148438 471.777344 1066.148438 476.40625 C 1065.941406 481.242188 1062.363281 485.238281 1057.734375 485.238281 Z M 941.203125 431.8125 C 952.773438 436.226562 972.125 440.226562 992.949219 430.96875 C 1009.355469 423.605469 1018.820312 410.984375 1023.871094 401.308594 C 1009.355469 400.679688 988.109375 402.363281 966.234375 413.929688 C 956.347656 418.980469 947.933594 425.078125 941.203125 431.8125 Z M 941.203125 431.8125 " fill-opacity="1" fill-rule="nonzero"/><path fill="#c65d48" d="M 861.269531 406.359375 C 859.585938 406.359375 857.695312 405.726562 856.222656 404.675781 C 852.226562 401.941406 851.382812 396.472656 854.328125 392.476562 L 915.121094 308.96875 C 918.0625 304.96875 923.324219 304.128906 927.320312 307.074219 C 931.316406 309.808594 932.15625 315.277344 929.210938 319.273438 L 868.421875 402.574219 C 866.527344 404.886719 864.003906 406.359375 861.269531 406.359375 Z M 861.269531 406.359375 " fill-opacity="1" fill-rule="nonzero"/><path fill="#c65d48" d="M 896.1875 397.101562 C 887.5625 397.101562 877.675781 395.210938 868 389.320312 C 849.910156 377.960938 842.550781 356.925781 841.917969 342.203125 C 840.234375 304.339844 883.777344 266.054688 950.039062 246.914062 C 952.351562 246.28125 954.664062 246.492188 956.769531 247.753906 C 958.871094 248.808594 960.132812 250.699219 960.765625 253.015625 C 963.710938 264.792969 966.023438 276.574219 966.867188 288.5625 C 968.546875 306.863281 968.128906 325.585938 965.394531 343.886719 C 964.761719 348.722656 960.34375 351.878906 955.507812 351.246094 C 950.667969 350.617188 947.511719 346.199219 948.144531 341.359375 C 950.667969 324.324219 951.089844 307.074219 949.40625 290.246094 C 948.773438 282.253906 947.304688 274.050781 945.621094 266.054688 C 893.453125 283.304688 857.273438 314.015625 858.535156 341.359375 C 858.957031 349.773438 863.164062 365.972656 876.625 374.386719 C 892.191406 384.273438 911.121094 377.121094 913.015625 376.277344 C 922.902344 372.28125 929.214844 365.550781 932.789062 360.710938 C 935.523438 356.714844 940.992188 355.875 944.988281 358.820312 C 948.984375 361.554688 949.828125 367.023438 946.882812 371.019531 C 942.042969 377.75 933.210938 387.007812 919.535156 392.476562 C 917.222656 393.738281 907.757812 397.101562 896.1875 397.101562 Z M 896.1875 397.101562 " fill-opacity="1" fill-rule="nonzero"/><path fill="#c65d48" d="M 749.996094 655.203125 C 702.878906 655.203125 664.382812 616.917969 664.382812 569.589844 C 664.382812 525.835938 734.851562 421.503906 742.84375 409.933594 C 744.527344 407.621094 747.261719 406.148438 749.996094 406.148438 C 752.730469 406.148438 755.464844 407.621094 757.148438 409.933594 C 765.140625 421.714844 835.609375 525.835938 835.609375 569.589844 C 835.609375 616.917969 797.113281 655.203125 749.996094 655.203125 Z M 749.996094 430.128906 C 725.804688 466.730469 681.632812 540.140625 681.632812 569.378906 C 681.632812 607.03125 712.132812 637.742188 749.996094 637.742188 C 787.648438 637.742188 818.359375 607.242188 818.359375 569.378906 C 818.359375 540.140625 774.1875 466.9375 749.996094 430.128906 Z M 749.996094 430.128906 " fill-opacity="1" fill-rule="nonzero"/><path fill="#c65d48" d="M 1015.667969 359.449219 L 1000.519531 359.449219 C 995.683594 359.449219 991.898438 355.453125 991.898438 350.828125 C 991.898438 345.988281 995.894531 342.203125 1000.519531 342.203125 L 1015.667969 342.203125 C 1020.503906 342.203125 1024.289062 346.199219 1024.289062 350.828125 C 1024.289062 355.664062 1020.503906 359.449219 1015.667969 359.449219 Z M 1015.667969 359.449219 " fill-opacity="1" fill-rule="nonzero"/><path fill="#c65d48" d="M 1034.386719 319.90625 L 1022.1875 319.90625 C 1017.347656 319.90625 1013.5625 315.910156 1013.5625 311.28125 C 1013.5625 306.441406 1017.558594 302.65625 1022.1875 302.65625 L 1034.386719 302.65625 C 1039.226562 302.65625 1043.011719 306.652344 1043.011719 311.28125 C 1043.011719 315.910156 1039.4375 319.90625 1034.386719 319.90625 Z M 1034.386719 319.90625 " fill-opacity="1" fill-rule="nonzero"/><path fill="#c65d48" d="M 885.039062 254.066406 C 880.203125 254.066406 876.414062 250.070312 876.414062 245.441406 L 876.414062 215.570312 C 876.414062 210.734375 880.410156 206.949219 885.039062 206.949219 C 889.667969 206.949219 893.664062 210.945312 893.664062 215.570312 L 893.664062 245.230469 C 893.664062 250.070312 889.667969 254.066406 885.039062 254.066406 Z M 885.039062 254.066406 " fill-opacity="1" fill-rule="nonzero"/><path fill="#c65d48" d="M 749.996094 322.851562 C 745.15625 322.851562 741.371094 318.851562 741.371094 314.226562 L 741.371094 263.109375 C 741.371094 258.273438 745.367188 254.488281 749.996094 254.488281 C 754.832031 254.488281 758.621094 258.484375 758.621094 263.109375 L 758.621094 314.226562 C 758.621094 318.851562 754.832031 322.851562 749.996094 322.851562 Z M 749.996094 322.851562 " fill-opacity="1" fill-rule="nonzero"/><path fill="#c65d48" d="M 775.449219 297.1875 L 724.332031 297.1875 C 719.496094 297.1875 715.707031 293.191406 715.707031 288.5625 C 715.707031 283.726562 719.707031 279.9375 724.332031 279.9375 L 775.449219 279.9375 C 780.285156 279.9375 784.070312 283.933594 784.070312 288.5625 C 784.28125 293.402344 780.285156 297.1875 775.449219 297.1875 Z M 775.449219 297.1875 " fill-opacity="1" fill-rule="nonzero"/><path fill="#c65d48" d="M 819.199219 257.222656 L 805.105469 257.222656 C 800.269531 257.222656 796.484375 253.222656 796.484375 248.597656 C 796.484375 243.757812 800.480469 239.972656 805.105469 239.972656 L 819.199219 239.972656 C 824.039062 239.972656 827.824219 243.96875 827.824219 248.597656 C 827.824219 253.222656 824.039062 257.222656 819.199219 257.222656 Z M 819.199219 257.222656 " fill-opacity="1" fill-rule="nonzero"/><path fill="#c65d48" d="M 821.933594 410.777344 C 819.832031 410.777344 817.515625 409.933594 815.835938 408.25 L 806.160156 398.574219 C 802.792969 395.210938 802.792969 389.742188 806.160156 386.375 C 809.523438 383.007812 814.992188 383.007812 818.359375 386.375 L 828.035156 396.050781 C 831.402344 399.417969 831.402344 404.886719 828.035156 408.25 C 826.351562 409.933594 824.25 410.777344 821.933594 410.777344 Z M 821.933594 410.777344 " fill-opacity="1" fill-rule="nonzero"/><path fill="#c65d48" d="M 857.484375 502.277344 C 855.378906 502.277344 853.066406 501.4375 851.382812 499.753906 L 841.917969 490.289062 C 838.550781 486.921875 838.550781 481.453125 841.917969 478.085938 C 845.285156 474.722656 850.753906 474.722656 854.117188 478.085938 L 863.582031 487.554688 C 866.949219 490.917969 866.949219 496.386719 863.582031 499.753906 C 861.691406 501.4375 859.585938 502.277344 857.484375 502.277344 Z M 857.484375 502.277344 " fill-opacity="1" fill-rule="nonzero"/><path fill="#c65d48" d="M 893.875 570.429688 C 891.769531 570.429688 889.457031 569.589844 887.773438 567.90625 C 884.410156 564.542969 884.410156 559.070312 887.773438 555.707031 L 901.238281 542.242188 C 904.601562 538.878906 910.070312 538.878906 913.4375 542.242188 C 916.800781 545.609375 916.800781 551.078125 913.4375 554.445312 L 899.972656 567.90625 C 898.5 569.589844 896.1875 570.429688 893.875 570.429688 Z M 893.875 570.429688 " fill-opacity="1" fill-rule="nonzero"/><path fill="#c65d48" d="M 923.953125 522.050781 L 915.960938 522.050781 C 911.121094 522.050781 907.335938 518.054688 907.335938 513.425781 C 907.335938 508.796875 911.332031 504.800781 915.960938 504.800781 L 923.953125 504.800781 C 928.792969 504.800781 932.578125 508.796875 932.578125 513.425781 C 932.578125 518.054688 928.792969 522.050781 923.953125 522.050781 Z M 923.953125 522.050781 " fill-opacity="1" fill-rule="nonzero"/><path fill="#c65d48" d="M 856.011719 647.628906 C 851.171875 647.628906 847.386719 643.632812 847.386719 639.003906 L 847.386719 624.28125 C 847.386719 619.441406 851.382812 615.65625 856.011719 615.65625 C 860.640625 615.65625 864.636719 619.652344 864.636719 624.28125 L 864.636719 639.003906 C 864.636719 643.632812 860.847656 647.628906 856.011719 647.628906 Z M 856.011719 647.628906 " fill-opacity="1" fill-rule="nonzero"/><path fill="#c65d48" d="M 1017.769531 783.515625 C 1012.933594 783.515625 1009.144531 779.519531 1009.144531 774.890625 L 1009.144531 755.75 C 1009.144531 750.910156 1013.140625 747.125 1017.769531 747.125 C 1022.398438 747.125 1026.394531 751.121094 1026.394531 755.75 L 1026.394531 774.890625 C 1026.605469 779.519531 1022.609375 783.515625 1017.769531 783.515625 Z M 1017.769531 783.515625 " fill-opacity="1" fill-rule="nonzero"/><path fill="#c65d48" d="M 749.996094 843.253906 L 500.101562 843.253906 C 495.261719 843.253906 491.476562 839.257812 491.476562 834.628906 C 491.476562 830 495.472656 826.003906 500.101562 826.003906 L 749.996094 826.003906 C 754.832031 826.003906 758.621094 830 758.621094 834.628906 C 758.621094 839.257812 754.832031 843.253906 749.996094 843.253906 Z M 749.996094 843.253906 " fill-opacity="1" fill-rule="nonzero"/><path fill="#c65d48" d="M 729.589844 843.253906 C 724.753906 843.253906 720.96875 839.257812 720.96875 834.628906 L 720.96875 787.089844 C 720.96875 757.222656 703.71875 729.453125 676.792969 716.414062 L 570.355469 663.824219 C 565.308594 661.300781 559.207031 663.195312 556.472656 668.242188 C 553.949219 672.660156 555.421875 678.550781 559.417969 681.707031 L 606.957031 717.253906 C 610.953125 720.199219 611.585938 725.457031 608.640625 729.453125 C 605.695312 733.453125 600.4375 734.082031 596.441406 731.136719 L 548.902344 695.589844 C 537.964844 687.386719 534.597656 672.03125 541.117188 660.039062 C 548.269531 646.996094 564.257812 641.949219 577.71875 648.261719 L 684.367188 700.636719 C 717.179688 716.625 738.214844 750.488281 738.214844 786.878906 L 738.214844 834.417969 C 738.214844 839.257812 734.429688 843.253906 729.589844 843.253906 Z M 729.589844 843.253906 " fill-opacity="1" fill-rule="nonzero"/><path fill="#c65d48" d="M 607.800781 843.253906 C 607.378906 843.253906 606.957031 843.253906 606.539062 843.042969 C 601.699219 842.414062 598.542969 837.996094 599.175781 833.15625 L 602.960938 807.074219 L 565.730469 783.726562 C 552.6875 775.519531 541.328125 765.003906 532.074219 752.382812 L 460.132812 654.78125 C 452.351562 644.261719 448.355469 631.851562 448.355469 618.8125 L 448.355469 561.804688 C 448.355469 553.601562 451.929688 546.03125 458.453125 540.773438 C 464.761719 535.511719 473.175781 533.621094 481.167969 535.300781 L 481.378906 535.300781 C 490.425781 537.195312 497.785156 543.714844 501.152344 552.339844 C 506.832031 567.695312 513.773438 582.839844 521.765625 597.355469 C 532.496094 617.128906 545.324219 635.847656 559.839844 653.097656 C 562.785156 656.675781 562.363281 662.144531 558.789062 665.296875 C 555.210938 668.242188 549.742188 667.824219 546.585938 664.246094 C 531.441406 646.15625 517.980469 626.59375 506.621094 605.769531 C 498.207031 590.625 491.054688 574.847656 484.957031 558.441406 C 483.902344 555.285156 480.957031 552.972656 477.804688 552.339844 L 477.59375 552.339844 C 474.648438 551.710938 471.703125 552.550781 469.390625 554.445312 C 467.074219 556.335938 465.8125 559.070312 465.8125 562.015625 L 465.8125 618.8125 C 465.8125 628.277344 468.757812 637.113281 474.226562 644.683594 L 546.167969 742.285156 C 554.160156 753.015625 563.835938 762.058594 575.195312 769.210938 L 617.054688 795.503906 C 620 797.398438 621.472656 800.761719 621.050781 803.917969 L 616.421875 835.679688 C 615.792969 840.097656 612.007812 843.253906 607.800781 843.253906 Z M 607.800781 843.253906 " fill-opacity="1" fill-rule="nonzero"/><path fill="#c65d48" d="M 594.125 674.554688 C 591.601562 674.554688 589.078125 673.5 587.394531 671.398438 L 543.644531 616.917969 C 539.226562 611.238281 535.859375 604.71875 534.175781 597.566406 L 520.503906 541.402344 C 518.402344 532.359375 510.199219 525.835938 500.730469 525.835938 L 453.824219 525.835938 C 448.984375 525.835938 445.199219 521.839844 445.199219 517.210938 C 445.199219 512.585938 449.195312 508.589844 453.824219 508.589844 L 500.519531 508.589844 C 517.980469 508.589844 532.914062 520.367188 537.121094 537.195312 L 550.792969 593.359375 C 551.847656 597.988281 554.160156 602.402344 556.894531 605.980469 L 600.648438 660.460938 C 603.59375 664.246094 603.171875 669.714844 599.386719 672.660156 C 597.914062 673.921875 596.019531 674.554688 594.125 674.554688 Z M 594.125 674.554688 " fill-opacity="1" fill-rule="nonzero"/><path fill="#c65d48" d="M 597.492188 485.238281 L 442.253906 485.238281 C 437.417969 485.238281 433.628906 481.242188 433.628906 476.613281 C 433.628906 471.777344 437.628906 467.992188 442.253906 467.992188 L 584.660156 467.992188 C 581.714844 461.257812 577.089844 453.476562 570.988281 445.484375 C 558.367188 451.164062 529.96875 460.417969 499.890625 446.746094 C 478.015625 436.648438 466.023438 419.820312 459.714844 407.410156 C 457.191406 402.570312 457.398438 396.894531 460.132812 392.054688 C 462.867188 387.214844 467.707031 384.273438 473.175781 384.0625 C 489.792969 383.21875 515.246094 384.902344 541.328125 398.574219 C 583.609375 420.453125 600.226562 458.523438 605.484375 474.089844 C 606.328125 476.613281 605.90625 479.769531 604.433594 481.875 C 602.960938 483.976562 600.226562 485.238281 597.492188 485.238281 Z M 476.121094 401.308594 C 481.378906 411.195312 490.84375 423.605469 507.042969 430.96875 C 527.65625 440.433594 547.21875 436.019531 558.789062 431.8125 C 551.847656 425.078125 543.433594 418.980469 533.546875 413.722656 C 511.667969 402.363281 490.425781 400.679688 476.121094 401.308594 Z M 476.121094 401.308594 " fill-opacity="1" fill-rule="nonzero"/><path fill="#c65d48" d="M 638.722656 406.359375 C 635.984375 406.359375 633.460938 405.097656 631.570312 402.78125 L 570.777344 319.273438 C 567.832031 315.277344 568.675781 310.019531 572.671875 307.074219 C 576.667969 304.339844 581.925781 304.96875 584.871094 308.96875 L 645.664062 392.476562 C 648.605469 396.472656 647.765625 401.730469 643.769531 404.675781 C 642.296875 405.726562 640.613281 406.359375 638.722656 406.359375 Z M 638.722656 406.359375 " fill-opacity="1" fill-rule="nonzero"/><path fill="#c65d48" d="M 603.804688 397.101562 C 592.023438 397.101562 582.558594 393.738281 579.824219 392.6875 C 566.148438 387.214844 557.316406 377.960938 552.476562 371.230469 C 549.742188 367.234375 550.375 361.976562 554.371094 359.03125 C 558.367188 356.296875 563.625 356.925781 566.570312 360.921875 C 570.148438 365.761719 576.457031 372.703125 586.34375 376.488281 C 588.449219 377.332031 607.167969 384.273438 622.734375 374.597656 C 636.195312 366.183594 640.402344 349.773438 640.824219 341.570312 C 641.875 314.226562 605.90625 283.515625 553.738281 266.265625 C 552.058594 274.257812 550.792969 282.253906 549.953125 290.457031 C 548.269531 307.496094 548.902344 324.742188 551.214844 341.570312 C 551.847656 346.410156 548.691406 350.617188 543.851562 351.457031 C 539.015625 352.089844 534.808594 348.933594 533.96875 344.09375 C 531.230469 325.792969 530.8125 307.074219 532.496094 288.773438 C 533.546875 276.785156 535.859375 264.792969 538.59375 253.222656 C 539.226562 250.910156 540.699219 249.015625 542.589844 247.964844 C 544.695312 246.914062 547.007812 246.492188 549.324219 247.125 C 615.582031 266.265625 659.335938 304.761719 657.441406 342.414062 C 656.8125 356.925781 649.660156 377.960938 631.359375 389.53125 C 622.523438 395.421875 612.636719 397.101562 603.804688 397.101562 Z M 603.804688 397.101562 " fill-opacity="1" fill-rule="nonzero"/><path fill="#c65d48" d="M 749.996094 655.203125 C 702.878906 655.203125 664.382812 616.917969 664.382812 569.589844 C 664.382812 525.835938 734.851562 421.503906 742.84375 409.933594 C 744.527344 407.621094 747.261719 406.148438 749.996094 406.148438 C 752.730469 406.148438 755.464844 407.621094 757.148438 409.933594 C 765.140625 421.714844 835.609375 525.835938 835.609375 569.589844 C 835.609375 616.917969 797.113281 655.203125 749.996094 655.203125 Z M 749.996094 430.128906 C 725.804688 466.730469 681.632812 540.140625 681.632812 569.378906 C 681.632812 607.03125 712.132812 637.742188 749.996094 637.742188 C 787.648438 637.742188 818.359375 607.242188 818.359375 569.378906 C 818.359375 540.140625 774.1875 466.9375 749.996094 430.128906 Z M 749.996094 430.128906 " fill-opacity="1" fill-rule="nonzero"/><path fill="#c65d48" d="M 499.46875 359.449219 L 484.324219 359.449219 C 479.488281 359.449219 475.699219 355.453125 475.699219 350.828125 C 475.699219 345.988281 479.695312 342.203125 484.324219 342.203125 L 499.46875 342.203125 C 504.308594 342.203125 508.09375 346.199219 508.09375 350.828125 C 508.09375 355.664062 504.308594 359.449219 499.46875 359.449219 Z M 499.46875 359.449219 " fill-opacity="1" fill-rule="nonzero"/><path fill="#c65d48" d="M 477.59375 319.90625 L 465.394531 319.90625 C 460.554688 319.90625 456.769531 315.910156 456.769531 311.28125 C 456.769531 306.441406 460.765625 302.65625 465.394531 302.65625 L 477.59375 302.65625 C 482.429688 302.65625 486.21875 306.652344 486.21875 311.28125 C 486.429688 315.910156 482.429688 319.90625 477.59375 319.90625 Z M 477.59375 319.90625 " fill-opacity="1" fill-rule="nonzero"/><path fill="#c65d48" d="M 614.953125 254.066406 C 610.113281 254.066406 606.328125 250.070312 606.328125 245.441406 L 606.328125 215.570312 C 606.328125 210.734375 610.324219 206.949219 614.953125 206.949219 C 619.578125 206.949219 623.574219 210.945312 623.574219 215.570312 L 623.574219 245.230469 C 623.574219 250.070312 619.789062 254.066406 614.953125 254.066406 Z M 614.953125 254.066406 " fill-opacity="1" fill-rule="nonzero"/><path fill="#c65d48" d="M 749.996094 322.851562 C 745.15625 322.851562 741.371094 318.851562 741.371094 314.226562 L 741.371094 263.109375 C 741.371094 258.273438 745.367188 254.488281 749.996094 254.488281 C 754.832031 254.488281 758.621094 258.484375 758.621094 263.109375 L 758.621094 314.226562 C 758.621094 318.851562 754.832031 322.851562 749.996094 322.851562 Z M 749.996094 322.851562 " fill-opacity="1" fill-rule="nonzero"/><path fill="#c65d48" d="M 775.449219 297.1875 L 724.332031 297.1875 C 719.496094 297.1875 715.707031 293.191406 715.707031 288.5625 C 715.707031 283.726562 719.707031 279.9375 724.332031 279.9375 L 775.449219 279.9375 C 780.285156 279.9375 784.070312 283.933594 784.070312 288.5625 C 784.28125 293.402344 780.285156 297.1875 775.449219 297.1875 Z M 775.449219 297.1875 " fill-opacity="1" fill-rule="nonzero"/><path fill="#c65d48" d="M 694.882812 257.222656 L 680.789062 257.222656 C 675.953125 257.222656 672.167969 253.222656 672.167969 248.597656 C 672.167969 243.757812 676.164062 239.972656 680.789062 239.972656 L 694.882812 239.972656 C 699.722656 239.972656 703.507812 243.96875 703.507812 248.597656 C 703.507812 253.222656 699.722656 257.222656 694.882812 257.222656 Z M 694.882812 257.222656 " fill-opacity="1" fill-rule="nonzero"/><path fill="#c65d48" d="M 678.054688 410.777344 C 675.953125 410.777344 673.640625 409.933594 671.957031 408.25 C 668.589844 404.886719 668.589844 399.417969 671.957031 396.050781 L 681.632812 386.375 C 684.996094 383.007812 690.464844 383.007812 693.832031 386.375 C 697.199219 389.742188 697.199219 395.210938 693.832031 398.574219 L 684.15625 408.25 C 682.472656 409.933594 680.160156 410.777344 678.054688 410.777344 Z M 678.054688 410.777344 " fill-opacity="1" fill-rule="nonzero"/><path fill="#c65d48" d="M 642.507812 502.277344 C 640.402344 502.277344 638.089844 501.4375 636.40625 499.753906 C 633.042969 496.386719 633.042969 490.917969 636.40625 487.554688 L 645.871094 478.085938 C 649.238281 474.722656 654.707031 474.722656 658.074219 478.085938 C 661.4375 481.453125 661.4375 486.921875 658.074219 490.289062 L 648.605469 499.753906 C 646.925781 501.4375 644.820312 502.277344 642.507812 502.277344 Z M 642.507812 502.277344 " fill-opacity="1" fill-rule="nonzero"/><path fill="#c65d48" d="M 606.117188 570.429688 C 604.011719 570.429688 601.699219 569.589844 600.015625 567.90625 L 586.554688 554.445312 C 583.1875 551.078125 583.1875 545.609375 586.554688 542.242188 C 589.917969 538.878906 595.390625 538.878906 598.753906 542.242188 L 612.21875 555.707031 C 615.582031 559.070312 615.582031 564.542969 612.21875 567.90625 C 610.535156 569.589844 608.21875 570.429688 606.117188 570.429688 Z M 606.117188 570.429688 " fill-opacity="1" fill-rule="nonzero"/><path fill="#c65d48" d="M 584.03125 522.050781 L 576.035156 522.050781 C 571.199219 522.050781 567.414062 518.054688 567.414062 513.425781 C 567.414062 508.796875 571.410156 504.800781 576.035156 504.800781 L 584.03125 504.800781 C 588.867188 504.800781 592.65625 508.796875 592.65625 513.425781 C 592.65625 518.054688 588.65625 522.050781 584.03125 522.050781 Z M 584.03125 522.050781 " fill-opacity="1" fill-rule="nonzero"/><path fill="#c65d48" d="M 643.980469 647.628906 C 639.140625 647.628906 635.355469 643.632812 635.355469 639.003906 L 635.355469 624.28125 C 635.355469 619.441406 639.351562 615.65625 643.980469 615.65625 C 648.816406 615.65625 652.605469 619.652344 652.605469 624.28125 L 652.605469 639.003906 C 652.605469 643.632812 648.816406 647.628906 643.980469 647.628906 Z M 643.980469 647.628906 " fill-opacity="1" fill-rule="nonzero"/><path fill="#c65d48" d="M 482.222656 783.515625 C 477.382812 783.515625 473.597656 779.519531 473.597656 774.890625 L 473.597656 755.75 C 473.597656 750.910156 477.59375 747.125 482.222656 747.125 C 487.058594 747.125 490.84375 751.121094 490.84375 755.75 L 490.84375 774.890625 C 490.84375 779.519531 486.847656 783.515625 482.222656 783.515625 Z M 482.222656 783.515625 " fill-opacity="1" fill-rule="nonzero"/><path fill="#c65d48" d="M 749.996094 611.871094 C 729.589844 611.871094 712.972656 595.253906 712.972656 574.847656 C 712.972656 556.96875 738.425781 525.417969 743.472656 519.527344 C 745.15625 517.421875 747.472656 516.371094 750.207031 516.371094 C 752.941406 516.371094 755.253906 517.421875 756.9375 519.527344 C 761.984375 525.625 787.4375 556.96875 787.4375 574.847656 C 787.015625 595.460938 770.398438 611.871094 749.996094 611.871094 Z M 749.996094 539.089844 C 739.6875 552.972656 730.222656 568.75 730.222656 575.058594 C 730.222656 585.996094 739.269531 594.832031 749.996094 594.832031 C 760.933594 594.832031 769.769531 585.785156 769.769531 575.058594 C 769.769531 568.328125 760.300781 552.761719 749.996094 539.089844 Z M 749.996094 539.089844 " fill-opacity="1" fill-rule="nonzero"/><path fill="#c65d48" d="M 768.507812 689.277344 L 731.273438 689.277344 C 726.4375 689.277344 722.648438 685.28125 722.648438 680.652344 C 722.648438 676.027344 726.648438 672.03125 731.273438 672.03125 L 768.507812 672.03125 C 773.34375 672.03125 777.128906 676.027344 777.128906 680.652344 C 777.128906 685.28125 773.34375 689.277344 768.507812 689.277344 Z M 768.507812 689.277344 " fill-opacity="1" fill-rule="nonzero"/><g clip-path="url(#805bfe2123)"><path fill="#c65d48" d="M 749.996094 1029.832031 C 681.84375 1029.832031 615.792969 1016.582031 553.53125 990.078125 C 493.371094 964.625 439.519531 928.234375 393.03125 881.957031 C 346.757812 835.679688 310.367188 781.621094 284.914062 721.460938 C 258.410156 659.199219 245.15625 593.148438 245.15625 524.996094 C 245.15625 456.84375 258.410156 390.792969 284.914062 328.53125 C 310.367188 268.371094 346.757812 214.308594 393.03125 168.03125 C 439.308594 121.757812 493.371094 85.367188 553.53125 59.914062 C 615.792969 33.410156 681.84375 20.15625 749.996094 20.15625 C 818.148438 20.15625 884.199219 33.410156 946.460938 59.914062 C 1006.621094 85.367188 1060.679688 121.757812 1106.957031 168.03125 C 1153.234375 214.308594 1189.625 268.371094 1215.078125 328.53125 C 1241.371094 390.792969 1254.832031 456.84375 1254.832031 524.996094 C 1254.832031 593.148438 1241.582031 659.199219 1215.078125 721.460938 C 1189.625 781.621094 1153.234375 835.46875 1106.957031 881.957031 C 1060.679688 928.234375 1006.621094 964.625 946.460938 990.078125 C 884.199219 1016.582031 818.148438 1029.832031 749.996094 1029.832031 Z M 749.996094 36.144531 C 480.328125 36.144531 261.144531 255.328125 261.144531 524.996094 C 261.144531 794.664062 480.539062 1013.847656 749.996094 1013.847656 C 1019.664062 1013.847656 1238.847656 794.453125 1238.847656 524.996094 C 1238.847656 255.328125 1019.664062 36.144531 749.996094 36.144531 Z M 749.996094 36.144531 " fill-opacity="1" fill-rule="nonzero"/></g></svg>