<svg xmlns="http://www.w3.org/2000/svg" xmlns:xlink="http://www.w3.org/1999/xlink" width="2000" zoomAndPan="magnify" viewBox="0 0 1500 1049.999947" height="1400" preserveAspectRatio="xMidYMid meet" version="1.0"><defs><clipPath id="309e8af0b6"><path d="M 358.875 30.675781 L 1141.121094 30.675781 L 1141.121094 1027 L 358.875 1027 Z M 358.875 30.675781 " clip-rule="nonzero"/></clipPath></defs><g clip-path="url(#309e8af0b6)"><path fill="#c65d48" d="M 838.546875 163.933594 C 801.261719 163.933594 764.859375 192.75 768.945312 240.472656 C 773.007812 288.160156 815.996094 336.648438 853.28125 336.648438 C 890.5625 336.648438 915.96875 286.59375 911.878906 238.910156 C 907.820312 191.183594 875.832031 163.933594 838.546875 163.933594 Z M 1016.792969 582.089844 C 1015.148438 477.890625 1098.195312 683.027344 1129.140625 673.285156 C 1186.820312 655.0625 1021.898438 361.171875 958.15625 350.898438 C 909.957031 343.105469 830.523438 354.667969 788.007812 385.535156 C 707.253906 302.652344 576.605469 251.996094 486.65625 283.21875 C 329.117188 337.894531 321.578125 615.042969 440.179688 674.523438 C 457.164062 797.78125 460.894531 1022.59375 623.171875 1020.3125 C 712.714844 1040.496094 814.0625 1009.550781 875.832031 959.140625 C 987.695312 867.828125 1018.679688 702.855469 1016.792969 582.089844 Z M 578.695312 30.675781 C 630.992188 30.675781 688.074219 67.167969 692.289062 127.566406 C 696.503906 187.933594 646.285156 249.347656 593.949219 249.347656 C 541.652344 249.347656 495.609375 185.972656 491.394531 125.605469 C 487.179688 65.195312 526.359375 30.675781 578.695312 30.675781 " fill-opacity="1" fill-rule="evenodd"/></g><path fill="#fefefe" d="M 566.417969 768.761719 C 553.457031 762.710938 534.101562 842.054688 520.5 854.535156 C 489.113281 883.238281 483.933594 574.257812 672.453125 587.308594 C 713.875 590.199219 746.550781 608.257812 805.507812 593.640625 C 828.707031 587.90625 868.128906 564.746094 896.507812 538.015625 C 919.304688 516.5 932.828125 489.046875 941.140625 494.632812 C 946.273438 498.074219 950.933594 526.175781 947.394531 551.503906 C 938.648438 614.316406 887.316406 656.222656 844.722656 690.375 C 748.996094 767.15625 825.421875 1085.328125 773.289062 1106.238281 C 708.460938 1136.023438 718.855469 893.550781 684.296875 891.308594 C 636.058594 888.175781 692.964844 1121.046875 649.300781 1101.871094 C 583.953125 1073.128906 572.558594 771.613281 566.417969 768.761719 Z M 753.972656 471.828125 C 762.847656 524.289062 719.578125 552.265625 672.019531 552.265625 C 598.484375 552.265625 563.363281 437.675781 626.457031 404.074219 C 676.347656 377.472656 745.109375 419.367188 753.972656 471.828125 " fill-opacity="1" fill-rule="evenodd"/></svg>