<svg xmlns="http://www.w3.org/2000/svg" xmlns:xlink="http://www.w3.org/1999/xlink" width="2000" zoomAndPan="magnify" viewBox="0 0 1500 1049.999947" height="1400" preserveAspectRatio="xMidYMid meet" version="1.0"><defs><clipPath id="1baef375aa"><path d="M 490.144531 222.003906 L 1107.140625 222.003906 L 1107.140625 1038.179688 L 490.144531 1038.179688 Z M 490.144531 222.003906 " clip-rule="nonzero"/></clipPath><clipPath id="71c786cf6b"><path d="M 417 11.796875 L 854 11.796875 L 854 225 L 417 225 Z M 417 11.796875 " clip-rule="nonzero"/></clipPath></defs><g clip-path="url(#1baef375aa)"><path fill="#c65d48" d="M 995.589844 421.035156 C 947.539062 421.035156 908.4375 381.945312 908.4375 333.886719 C 908.4375 285.832031 947.539062 246.738281 995.589844 246.738281 C 1043.644531 246.738281 1082.746094 285.832031 1082.746094 333.886719 C 1082.746094 381.945312 1043.644531 421.035156 995.589844 421.035156 Z M 851.601562 702.921875 C 832.953125 702.921875 817.78125 687.75 817.78125 669.113281 L 817.9375 441.007812 C 817.941406 434.273438 812.484375 428.808594 805.746094 428.796875 C 805.746094 428.796875 805.742188 428.796875 805.738281 428.796875 C 799.007812 428.796875 793.546875 434.253906 793.539062 440.992188 L 793.523438 467.714844 L 628.738281 585.441406 C 623.253906 589.359375 621.988281 596.976562 625.902344 602.460938 C 628.28125 605.792969 632.03125 607.566406 635.835938 607.566406 C 637.980469 607.566406 640.140625 607.003906 642.085938 605.84375 L 744.828125 733.839844 C 744.878906 733.902344 744.929688 733.96875 744.984375 734.027344 C 750.667969 740.824219 754.042969 749.4375 754.488281 758.28125 C 754.492188 758.371094 754.496094 758.460938 754.503906 758.546875 L 769.859375 970.816406 C 770.902344 992.855469 753.890625 1012.066406 731.871094 1013.667969 C 731.5625 1013.695312 731.25 1013.714844 730.945312 1013.726562 C 720.003906 1014.285156 709.5 1010.539062 701.371094 1003.1875 C 693.242188 995.839844 688.460938 985.765625 687.90625 974.824219 C 687.902344 974.726562 687.898438 974.628906 687.890625 974.53125 L 673.421875 779.921875 C 673.25 777.617188 672.429688 775.410156 671.050781 773.554688 L 532.917969 587.464844 C 500.441406 539.097656 515.304688 490.140625 545.828125 468.59375 L 761.917969 315.90625 C 762.042969 315.820312 762.171875 315.734375 762.292969 315.636719 C 778.523438 303.21875 798.617188 297.863281 818.875 300.5625 C 839.132812 303.261719 857.125 313.679688 869.539062 329.914062 C 882.570312 346.945312 883.46875 354.726562 885.304688 373.035156 L 885.421875 669.101562 C 885.421875 687.75 870.25 702.921875 851.601562 702.921875 Z M 1074.464844 255.015625 C 1053.398438 233.941406 1025.386719 222.339844 995.589844 222.339844 C 965.796875 222.339844 937.785156 233.941406 916.714844 255.015625 C 900.96875 270.761719 890.511719 290.386719 886.234375 311.738281 C 870 292.253906 847.386719 279.746094 822.089844 276.382812 C 795.453125 272.832031 769.03125 279.839844 747.65625 296.117188 L 531.753906 448.664062 C 511.171875 463.199219 496.683594 486.636719 492.007812 512.980469 C 489.492188 527.140625 489.832031 541.65625 493.019531 556.136719 C 496.433594 571.652344 502.132812 587.195312 512.75 601.191406 C 512.765625 601.210938 512.777344 601.230469 512.789062 601.253906 C 512.796875 601.265625 512.804688 601.277344 512.8125 601.289062 C 512.835938 601.324219 512.863281 601.355469 512.886719 601.390625 C 512.96875 601.507812 513.046875 601.625 513.132812 601.738281 L 649.355469 785.257812 L 663.550781 976.207031 C 664.46875 993.597656 672.085938 1009.601562 685.007812 1021.285156 C 697.136719 1032.246094 712.574219 1038.179688 728.808594 1038.179688 C 729.933594 1038.179688 731.058594 1038.148438 732.183594 1038.09375 C 732.679688 1038.0625 733.167969 1038.035156 733.648438 1038 C 750.773438 1036.753906 766.476562 1028.980469 777.871094 1016.113281 C 789.28125 1003.21875 795.085938 986.652344 794.21875 969.460938 C 794.210938 969.371094 794.207031 969.28125 794.203125 969.191406 L 778.84375 756.914062 C 778.109375 742.898438 772.761719 729.261719 763.78125 718.480469 L 661.988281 591.667969 L 793.503906 497.710938 L 793.386719 669.101562 C 793.386719 701.203125 819.503906 727.320312 851.601562 727.320312 C 883.703125 727.320312 909.816406 701.203125 909.816406 669.101562 L 909.714844 405.078125 C 911.917969 407.726562 914.246094 410.292969 916.714844 412.761719 C 937.785156 433.832031 965.796875 445.433594 995.589844 445.433594 C 1025.386719 445.433594 1053.398438 433.832031 1074.464844 412.761719 C 1095.535156 391.695312 1107.140625 363.683594 1107.140625 333.886719 C 1107.140625 304.089844 1095.535156 276.082031 1074.464844 255.015625 " fill-opacity="1" fill-rule="nonzero"/></g><path fill="#c65d48" d="M 623.621094 786.867188 C 623.527344 786.867188 623.429688 786.867188 623.332031 786.867188 C 616.726562 786.867188 611.296875 792.136719 611.140625 798.777344 C 610.925781 808.070312 607.511719 817.101562 601.53125 824.214844 C 601.277344 824.519531 601.035156 824.835938 600.808594 825.160156 L 497.125 976.214844 C 489.109375 985.496094 477.511719 990.667969 465.207031 990.410156 C 455.761719 990.214844 446.9375 986.886719 439.6875 980.792969 C 422.371094 966.238281 420.128906 940.304688 434.683594 922.992188 C 434.96875 922.652344 435.234375 922.300781 435.480469 921.933594 L 527.492188 784.667969 C 528.746094 782.792969 529.457031 780.617188 529.546875 778.367188 L 533.894531 670.199219 C 534.167969 663.46875 528.929688 657.792969 522.199219 657.523438 C 515.472656 657.253906 509.792969 662.488281 509.519531 669.222656 L 505.3125 773.945312 L 415.566406 907.828125 C 392.847656 935.4375 396.554688 976.402344 423.988281 999.464844 C 435.386719 1009.046875 449.84375 1014.492188 464.703125 1014.800781 C 465.164062 1014.808594 465.625 1014.8125 466.082031 1014.8125 C 485.472656 1014.8125 503.660156 1006.359375 516.160156 991.492188 C 516.417969 991.183594 516.65625 990.867188 516.882812 990.542969 L 620.605469 839.433594 C 629.894531 828.167969 635.1875 813.957031 635.53125 799.347656 C 635.691406 792.613281 630.359375 787.027344 623.621094 786.867188 " fill-opacity="1" fill-rule="nonzero"/><g clip-path="url(#71c786cf6b)"><path fill="#c65d48" d="M 442.367188 57.277344 C 442.367188 45.652344 451.828125 36.1875 463.457031 36.1875 L 763.273438 36.1875 C 773.972656 36.1875 782.828125 44.203125 784.175781 54.539062 L 784.308594 113.835938 C 784.324219 120.558594 789.78125 126.007812 796.503906 126.007812 C 796.511719 126.007812 796.523438 126.007812 796.53125 126.007812 C 803.265625 125.988281 808.71875 120.515625 808.703125 113.777344 L 808.648438 90.449219 C 811.96875 91.5 815.496094 92.074219 819.15625 92.074219 C 824.890625 92.074219 829.554688 96.738281 829.554688 102.46875 L 829.554688 133.570312 C 829.554688 139.304688 824.890625 143.964844 819.15625 143.964844 C 814.753906 143.964844 810.542969 144.796875 806.660156 146.296875 C 804.460938 143.097656 800.78125 141 796.605469 141 C 796.601562 141 796.59375 141 796.585938 141 C 789.851562 141.011719 784.398438 146.484375 784.410156 153.214844 L 784.445312 176.476562 C 784.394531 177.230469 784.359375 177.992188 784.359375 178.761719 C 784.359375 190.386719 774.902344 199.851562 763.273438 199.851562 L 463.457031 199.851562 C 451.828125 199.851562 442.367188 190.386719 442.367188 178.761719 Z M 463.457031 224.242188 L 763.273438 224.242188 C 788.351562 224.242188 808.757812 203.84375 808.757812 178.761719 C 808.757812 173.027344 813.417969 168.367188 819.15625 168.367188 C 838.339844 168.367188 853.949219 152.753906 853.949219 133.570312 L 853.949219 102.46875 C 853.949219 83.28125 838.339844 67.679688 819.15625 67.679688 C 813.417969 67.679688 808.757812 63.011719 808.757812 57.277344 C 808.757812 55.671875 808.671875 54.082031 808.507812 52.523438 C 808.503906 52.476562 808.5 52.433594 808.492188 52.390625 C 806.046875 29.601562 786.699219 11.796875 763.273438 11.796875 L 463.457031 11.796875 C 438.375 11.796875 417.972656 32.195312 417.972656 57.277344 L 417.972656 178.761719 C 417.972656 203.84375 438.375 224.242188 463.457031 224.242188 " fill-opacity="1" fill-rule="nonzero"/></g><path fill="#c65d48" d="M 491.394531 87.722656 C 491.394531 86.226562 492.609375 85.015625 494.105469 85.015625 L 511.972656 85.015625 C 513.464844 85.015625 514.679688 86.226562 514.679688 87.722656 L 514.679688 148.324219 C 514.679688 149.816406 513.464844 151.027344 511.972656 151.027344 L 494.105469 151.027344 C 492.609375 151.027344 491.394531 149.816406 491.394531 148.324219 Z M 494.105469 175.425781 L 511.972656 175.425781 C 526.917969 175.425781 539.074219 163.269531 539.074219 148.324219 L 539.074219 87.722656 C 539.074219 72.777344 526.917969 60.621094 511.972656 60.621094 L 494.105469 60.621094 C 479.160156 60.621094 467 72.777344 467 87.722656 L 467 148.324219 C 467 163.269531 479.160156 175.425781 494.105469 175.425781 " fill-opacity="1" fill-rule="nonzero"/></svg>